<svg width="72" height="72" viewBox="0 0 72 72" fill="none" xmlns="http://www.w3.org/2000/svg">
<path d="M64.8255 35.6745C63.5557 34.4051 62.0574 33.3872 60.4095 32.6745C61.5189 31.8846 62.4502 30.8708 63.1435 29.6985C63.8367 28.5263 64.2764 27.2217 64.434 25.869C64.5917 24.5163 64.4637 23.1455 64.0587 21.8453C63.6535 20.5451 62.9802 19.3442 62.0821 18.3204C61.1841 17.2965 60.0813 16.4726 58.845 15.9014C57.6087 15.3303 56.2662 15.0249 54.9045 15.0048C53.5428 14.9849 52.192 15.2507 50.9394 15.7853C49.6867 16.3197 48.5602 17.111 47.6325 18.108C46.9903 15.5081 45.4959 13.1982 43.3874 11.5471C41.2788 9.89602 38.6781 8.99887 36 8.99887C33.3219 8.99887 30.7212 9.89602 28.6126 11.5471C26.5041 13.1982 25.0097 15.5081 24.3675 18.108C23.4399 17.1098 22.3132 16.3175 21.0602 15.782C19.8071 15.2466 18.4557 14.9801 17.0931 14.9998C15.7306 15.0195 14.3874 15.3249 13.1504 15.8964C11.9134 16.4678 10.81 17.2925 9.91168 18.317C9.01336 19.3416 8.34009 20.5434 7.93536 21.8445C7.53064 23.1456 7.4035 24.5172 7.56216 25.8707C7.72082 27.224 8.16174 28.529 8.85642 29.7012C9.5511 30.8736 10.4841 31.887 11.595 32.676C9.0447 33.7814 6.87275 35.6075 5.34587 37.9299C3.81897 40.2525 3.00365 42.9705 3 45.75V52.5C3.00238 54.4884 3.79332 56.3946 5.19933 57.8007C6.60534 59.2067 8.5116 59.9976 10.5 60H21.039C21.7318 60.9282 22.6311 61.6824 23.6656 62.2032C24.7002 62.7239 25.8419 62.9967 27 63H45C46.1581 62.9967 47.2998 62.7239 48.3344 62.2032C49.3689 61.6824 50.2682 60.9282 50.961 60H61.5C63.4884 59.9976 65.3946 59.2067 66.8007 57.8007C68.2066 56.3946 68.9976 54.4884 69 52.5V45.75C69.0051 43.878 68.6388 42.0236 67.9223 40.2941C67.2057 38.5646 66.1531 36.9944 64.8255 35.6745ZM54.75 18C56.085 18 57.39 18.3959 58.5001 19.1376C59.6101 19.8794 60.4754 20.9336 60.9863 22.1669C61.4972 23.4003 61.6308 24.7575 61.3703 26.0669C61.1099 27.3762 60.4669 28.5789 59.523 29.523C58.5789 30.467 57.3762 31.1099 56.0668 31.3703C54.7575 31.6308 53.4003 31.4972 52.1669 30.9863C50.9336 30.4754 49.8793 29.6102 49.1376 28.5002C48.3959 27.39 48 26.085 48 24.75C48.0019 22.9604 48.7138 21.2447 49.9792 19.9793C51.2447 18.7139 52.9604 18.002 54.75 18ZM46.719 33.981C45.3813 32.8308 43.8675 31.9031 42.2355 31.233C43.5508 30.4278 44.7 29.3786 45.621 28.1415C46.3023 29.9682 47.5142 31.5494 49.101 32.682C48.2679 33.039 47.4703 33.474 46.719 33.981ZM36 12C37.78 12 39.5201 12.5279 41.0001 13.5168C42.4802 14.5057 43.6338 15.9113 44.3149 17.5559C44.9961 19.2005 45.1743 21.0101 44.827 22.7558C44.4798 24.5016 43.6227 26.1053 42.3639 27.3639C41.1052 28.6227 39.5016 29.4798 37.7557 29.8271C36.01 30.1743 34.2004 29.9961 32.5558 29.315C30.9112 28.6338 29.5058 27.4802 28.5168 26.0001C27.5278 24.5201 27 22.7801 27 21C27.0024 18.6138 27.9513 16.326 29.6386 14.6387C31.326 12.9514 33.6138 12.0024 36 12ZM25.281 33.981C24.5296 33.474 23.7321 33.039 22.899 32.682C24.4858 31.5494 25.6977 29.9682 26.379 28.1415C27.3 29.3786 28.4492 30.4278 29.7645 31.233C28.1325 31.9031 26.6187 32.8308 25.281 33.981ZM10.5 24.75C10.5 23.415 10.8959 22.11 11.6376 20.9999C12.3793 19.8899 13.4335 19.0247 14.6669 18.5138C15.9003 18.003 17.2575 17.8692 18.5669 18.1298C19.8762 18.3902 21.0789 19.0331 22.023 19.977C22.9669 20.9211 23.6098 22.1238 23.8703 23.4332C24.1308 24.7425 23.9972 26.0997 23.4862 27.3332C22.9753 28.5665 22.1101 29.6208 21.0002 30.3624C19.89 31.1042 18.585 31.5 17.25 31.5C15.4604 31.4981 13.7447 30.7862 12.4792 29.5208C11.2138 28.2554 10.502 26.5397 10.5 24.75ZM10.5 57C9.30653 57 8.16194 56.5259 7.31802 55.682C6.47411 54.8381 6 53.6936 6 52.5V45.75C5.9971 43.7477 6.52948 41.7809 7.54204 40.0533C8.55459 38.3258 10.0105 36.9003 11.759 35.9246C13.5075 34.9487 15.4851 34.458 17.487 34.5032C19.4889 34.5483 21.4424 35.1278 23.145 36.1815C20.7849 39.1025 19.4982 42.7448 19.5 46.5V55.5C19.4995 56.0037 19.5498 56.5064 19.65 57H10.5ZM49.5 55.5C49.5 56.6936 49.0258 57.8381 48.1819 58.682C47.3381 59.5259 46.1934 60 45 60H27C25.8066 60 24.662 59.5259 23.8181 58.682C22.9741 57.8381 22.5 56.6936 22.5 55.5V46.5C22.5 42.9197 23.9223 39.4859 26.454 36.954C28.9858 34.4223 32.4197 33 36 33C39.5803 33 43.0141 34.4223 45.546 36.954C48.0777 39.4859 49.5 42.9197 49.5 46.5V55.5ZM66 52.5C66 53.6936 65.5258 54.8381 64.6819 55.682C63.8381 56.5259 62.6934 57 61.5 57H52.35C52.4502 56.5064 52.5005 56.0037 52.5 55.5V46.5C52.5018 42.7448 51.2151 39.1025 48.855 36.1815C50.5581 35.1303 52.5111 34.553 54.5121 34.509C56.513 34.4649 58.4895 34.956 60.2372 35.9315C61.9848 36.9068 63.4404 38.3312 64.4535 40.0572C65.4666 41.7833 66.0005 43.7486 66 45.75V52.5Z" fill="#3D3F4E"/>
</svg>
