<svg width="73" height="72" viewBox="0 0 73 72" fill="none" xmlns="http://www.w3.org/2000/svg">
<path d="M36.264 2.87988C17.8555 2.87988 2.90137 17.7253 2.90137 35.9999C2.90137 54.2745 17.8555 69.1199 36.264 69.1199C54.6725 69.1199 69.6266 54.2745 69.6266 35.9999C69.6266 17.7253 54.6725 2.87988 36.264 2.87988ZM36.264 5.75988C53.1046 5.75988 66.7255 19.2817 66.7255 35.9999C66.7255 52.718 53.1046 66.2399 36.264 66.2399C19.4234 66.2399 5.80247 52.718 5.80247 35.9999C5.80247 19.2817 19.4234 5.75988 36.264 5.75988ZM49.4464 20.2105C48.4543 20.2105 47.3394 20.4386 46.0354 20.9052C44.0104 21.6295 20.193 31.6686 17.4834 32.8105C15.9342 33.4643 13.0496 34.6804 13.0496 37.5805C13.0496 39.5029 14.1843 40.8779 16.4181 41.6699C17.6192 42.0947 20.4718 42.953 22.1268 43.4052C22.8289 43.5967 23.575 43.6949 24.3423 43.6949C25.8436 43.6949 27.3545 43.3235 28.5381 42.6683C28.528 42.9102 28.5346 43.1548 28.5636 43.3996C28.7421 44.9116 29.6812 46.3337 31.0738 47.2049C31.9847 47.7751 39.4252 52.7243 40.5364 53.5105C42.0971 54.6179 43.8226 55.2036 45.5226 55.2036C48.7718 55.2036 49.862 51.8732 50.3871 50.2733C51.1486 47.9506 54.0002 29.0622 54.3222 25.7314C54.5413 23.449 53.5831 21.5696 51.7583 20.7027C51.0751 20.3758 50.295 20.2105 49.4464 20.2105ZM49.4464 23.0905C49.8453 23.0905 50.2015 23.156 50.5032 23.3014C51.1893 23.6283 51.5383 24.357 51.4325 25.4586C51.0814 29.0918 48.2368 47.5328 47.6304 49.3818C47.1111 50.9629 46.5641 52.3236 45.5226 52.3236C44.4811 52.3236 43.3433 51.9612 42.222 51.1649C41.1008 50.37 33.6549 45.413 32.6206 44.7664C31.7141 44.1991 30.7546 42.7848 32.105 41.4168C33.2176 40.2907 41.6569 32.1593 42.3778 31.4436C42.9146 30.9094 42.6636 30.2652 42.137 30.2652C41.9557 30.2652 41.7386 30.3411 41.5137 30.5239C40.6318 31.2396 28.3364 39.4073 27.2717 40.0639C26.5668 40.4988 25.4752 40.8121 24.3423 40.8121C23.8593 40.8121 23.3702 40.7546 22.9003 40.6264C21.264 40.1786 18.495 39.3446 17.3955 38.9558C16.3381 38.5814 15.9535 38.2227 15.9535 37.5805C15.9535 36.6675 17.2516 36.0373 18.6194 35.4599C20.0642 34.8507 45.0631 24.312 47.0185 23.6136C47.9236 23.2882 48.7516 23.0905 49.4464 23.0905Z" fill="#3D3F4E"/>
</svg>
