<svg width="67" height="67" viewBox="0 0 67 67" fill="none" xmlns="http://www.w3.org/2000/svg">
<path d="M33.12 0C14.8457 0 0 14.8457 0 33.12C0 38.9939 1.61091 44.4757 4.2975 49.2609L0.0534375 64.4119C-0.0143653 64.6543 -0.0174289 64.9103 0.0445523 65.1543C0.106534 65.3983 0.231394 65.6218 0.406684 65.8025C0.581975 65.9832 0.80157 66.1148 1.04358 66.1841C1.28558 66.2535 1.54154 66.2582 1.78594 66.1978L17.5837 62.2828C22.2259 64.761 27.4933 66.24 33.12 66.24C51.3943 66.24 66.24 51.3943 66.24 33.12C66.24 14.8457 51.3943 0 33.12 0ZM33.12 2.88C49.8377 2.88 63.36 16.4023 63.36 33.12C63.36 49.8377 49.8377 63.36 33.12 63.36C27.7604 63.36 22.7407 61.9627 18.3769 59.5209C18.0577 59.3426 17.6827 59.2923 17.3278 59.3803L3.49312 62.8087L7.20281 49.5731C7.25589 49.3861 7.27055 49.1902 7.2459 48.9974C7.22125 48.8045 7.1578 48.6186 7.05937 48.4509C4.40739 43.954 2.88 38.7218 2.88 33.12C2.88 16.4023 16.4023 2.88 33.12 2.88ZM21.0853 15.84C20.1622 15.84 18.8439 16.1834 17.7609 17.3503C17.1105 18.0512 14.4 20.6921 14.4 25.335C14.4 30.1756 17.7572 34.3524 18.1631 34.8891H18.1659V34.8919C18.1274 34.8413 18.6812 35.6432 19.4203 36.6047C20.1595 37.5662 21.1931 38.8291 22.4916 40.1962C25.0886 42.9306 28.7399 46.0907 33.2719 48.0234C35.3589 48.9122 37.0054 49.4488 38.2528 49.8403C40.5646 50.5662 42.6702 50.4559 44.2519 50.2228C45.4358 50.0485 46.7379 49.48 48.0262 48.6647C49.3146 47.8494 50.5772 46.8356 51.1341 45.2953C51.5329 44.1911 51.7357 43.1706 51.8091 42.3309C51.8457 41.9111 51.8504 41.5405 51.8231 41.1975C51.7958 40.8545 51.825 40.5917 51.5053 40.0669C50.8349 38.9661 50.0756 38.9374 49.2834 38.5453C48.8433 38.3275 47.5901 37.7155 46.3331 37.1166C45.0776 36.5183 43.9904 35.9884 43.3209 35.7497C42.8979 35.5975 42.3814 35.3784 41.6362 35.4628C40.8911 35.5472 40.1551 36.0849 39.7266 36.72C39.3204 37.322 37.6854 39.252 37.1869 39.8194C37.1802 39.8153 37.2235 39.8353 37.0266 39.7378C36.4101 39.4327 35.6561 39.1733 34.5403 38.5847C33.4246 37.9961 32.0288 37.127 30.5016 35.7806V35.7778C28.2284 33.7766 26.6361 31.264 26.1337 30.42C26.1676 30.3797 26.1297 30.4285 26.2012 30.3581L26.2041 30.3553C26.7174 29.8496 27.1724 29.2457 27.5569 28.8028C28.102 28.1748 28.3425 27.6213 28.6031 27.1041C29.1225 26.0733 28.8333 24.939 28.5328 24.3422V24.3394C28.5536 24.3807 28.3703 23.9762 28.1728 23.5097C27.9748 23.0418 27.7224 22.4353 27.4528 21.7884C26.9136 20.4948 26.3117 19.0439 25.9537 18.1941V18.1912C25.532 17.1903 24.9615 16.4691 24.2156 16.1212C23.4697 15.7734 22.8107 15.8723 22.7841 15.8709H22.7812C22.249 15.8464 21.6649 15.84 21.0853 15.84ZM21.0853 18.72C21.6405 18.72 22.1878 18.7268 22.6462 18.7481C23.1178 18.7716 23.0885 18.7736 22.9978 18.7312C22.9057 18.6883 23.0307 18.6743 23.2987 19.3106C23.6493 20.1427 24.2542 21.5989 24.795 22.8966C25.0654 23.5454 25.3185 24.1543 25.5206 24.6319C25.7227 25.1095 25.8323 25.3761 25.9594 25.6303V25.6331L25.9622 25.6359C26.0868 25.8818 26.0758 25.7244 26.0325 25.8103C25.7286 26.4134 25.6874 26.5615 25.38 26.9156C24.912 27.4548 24.4346 28.0561 24.1819 28.305C23.9608 28.5222 23.5619 28.8605 23.3128 29.5228C23.0634 30.1861 23.1798 31.0962 23.58 31.7756C24.1128 32.6802 25.8687 35.5382 28.5975 37.9406C30.316 39.4555 31.917 40.4581 33.1959 41.1328C34.4749 41.8075 35.5166 42.2015 35.7497 42.3169C36.3032 42.5908 36.9081 42.8035 37.6116 42.7191C38.315 42.6346 38.9214 42.2078 39.3075 41.7712L39.3103 41.7684C39.8241 41.1859 41.3508 39.4426 42.0834 38.3681C42.1145 38.3791 42.1043 38.3706 42.3478 38.4581V38.4609H42.3506C42.4618 38.5005 43.8542 39.1237 45.0956 39.7153C46.3371 40.3069 47.5971 40.9217 48.0066 41.1244C48.5974 41.4168 48.8766 41.6072 48.9487 41.6081C48.9536 41.7348 48.9585 41.8721 48.9403 42.0806C48.8898 42.659 48.7352 43.4595 48.4256 44.3166C48.274 44.7361 47.484 45.6014 46.4878 46.2319C45.4916 46.8623 44.279 47.3076 43.83 47.3737C42.4798 47.5727 40.8768 47.6453 39.1162 47.0925C37.8955 46.7093 36.3734 46.2133 34.4025 45.3741C30.4053 43.6694 27.0081 40.7686 24.5812 38.2134C23.3678 36.9359 22.3957 35.7466 21.7041 34.8469C21.0137 33.9488 20.7123 33.4815 20.4609 33.1509L20.4581 33.1481C20.012 32.5581 17.28 28.758 17.28 25.335C17.28 21.7123 18.9626 20.2917 19.8731 19.3106C20.3511 18.7956 20.8737 18.72 21.0853 18.72Z" fill="#3D3F4E"/>
</svg>
