<?xml version="1.0" standalone="no"?>
<!DOCTYPE svg PUBLIC "-//W3C//DTD SVG 20010904//EN"
 "http://www.w3.org/TR/2001/REC-SVG-20010904/DTD/svg10.dtd">
<svg version="1.0" xmlns="http://www.w3.org/2000/svg"
 width="512.000000pt" height="556.000000pt" viewBox="0 0 512.000000 556.000000"
 preserveAspectRatio="xMidYMid meet">

<g transform="translate(0.000000,556.000000) scale(0.100000,-0.100000)"
fill="#000000" stroke="none">
<path d="M482 5534 c-56 -28 -95 -70 -113 -122 -11 -32 -12 -32 -78 -32 -93 0
-155 -23 -211 -80 -126 -125 -98 -326 58 -417 40 -24 60 -28 144 -31 54 -3 98
-8 98 -13 0 -17 71 -87 100 -99 l30 -12 0 -354 0 -353 65 -80 64 -79 -47 -28
c-88 -51 -82 -27 -82 -299 l0 -243 55 -37 c30 -21 55 -39 55 -41 0 -1 -25 -16
-55 -33 l-55 -31 0 -574 c0 -624 -2 -604 55 -594 14 3 25 3 25 1 0 -2 -18 -28
-40 -57 l-40 -53 0 -521 c0 -433 -2 -522 -14 -522 -23 0 -101 -77 -120 -118
l-18 -39 -78 -6 c-124 -8 -202 -54 -253 -151 -17 -32 -22 -58 -22 -116 0 -89
21 -136 85 -194 57 -52 98 -67 199 -73 l86 -6 28 -39 c18 -25 47 -48 80 -64
l52 -24 2025 0 2025 0 52 24 c33 16 62 39 80 64 l28 39 86 6 c101 6 142 21
199 73 64 58 85 105 85 194 0 58 -5 84 -22 116 -52 97 -129 143 -255 152 l-79
5 -16 39 c-16 39 -95 118 -119 118 -11 0 -14 38 -14 199 l0 199 -50 42 c-27
23 -50 47 -50 53 0 7 23 61 50 121 l50 110 0 1095 0 1096 -95 158 -95 158 46
27 c25 15 67 41 92 57 l47 30 3 276 2 277 30 12 c30 12 100 82 100 99 0 5 44
10 98 13 84 3 104 7 144 31 156 91 184 292 58 417 -56 57 -118 80 -211 80 -66
0 -67 0 -78 32 -18 52 -57 94 -113 122 l-52 26 -2026 0 -2026 0 -52 -26z m388
-223 c0 -171 4 -186 52 -179 23 3 23 4 26 171 l2 167 235 0 235 0 0 -151 c0
-84 5 -159 10 -170 12 -21 50 -25 68 -7 8 8 12 60 12 170 l0 158 235 0 235 0
0 -158 c0 -110 4 -162 12 -170 18 -18 56 -14 68 7 5 11 10 86 10 170 l0 151
235 0 235 0 2 -167 3 -168 29 -3 c16 -2 32 2 37 10 5 7 9 84 9 171 l0 157 235
0 235 0 0 -151 c0 -84 5 -159 10 -170 12 -21 50 -25 68 -7 8 8 12 60 12 170
l0 158 235 0 235 0 0 -158 c0 -110 4 -162 12 -170 18 -18 56 -14 68 7 5 11 10
86 10 170 l0 151 235 0 235 0 2 -167 c3 -167 3 -168 26 -171 48 -7 52 8 52
179 l0 159 146 0 c241 0 247 -9 242 -352 -3 -211 -4 -229 -24 -255 -11 -15
-36 -36 -55 -45 -32 -17 -150 -18 -2039 -18 -1889 0 -2007 1 -2039 18 -19 9
-44 30 -55 45 -20 26 -21 44 -24 255 -5 348 -2 352 261 352 l167 0 0 -159z
m-520 -197 l0 -187 -65 6 c-125 12 -186 64 -193 167 -9 124 69 196 216 199
l42 1 0 -186z m4539 175 c95 -22 146 -91 139 -190 -7 -102 -68 -154 -193 -166
l-65 -6 0 187 0 186 38 0 c20 0 57 -5 81 -11z m-369 -823 l0 -245 -97 -58
c-64 -39 -99 -66 -101 -79 -2 -11 41 -93 98 -188 l100 -168 0 -1083 0 -1082
-55 -121 c-30 -67 -55 -130 -55 -141 0 -12 21 -37 54 -63 l55 -43 0 -172 1
-173 -1960 0 -1960 0 0 500 0 500 75 101 c41 55 75 104 75 108 0 4 -6 15 -14
26 -11 15 -21 17 -57 12 -25 -3 -53 -9 -62 -13 -16 -6 -17 28 -17 507 l0 514
70 39 c38 21 71 45 74 53 10 25 -11 48 -79 93 l-65 42 0 204 0 203 69 41 c38
23 72 48 75 57 8 19 -8 44 -86 138 l-58 72 0 331 0 332 1960 0 1960 0 0 -244z
m91 -3729 c64 -42 69 -65 69 -312 -1 -329 -5 -335 -245 -335 l-145 0 0 180 c0
169 -1 180 -20 190 -14 8 -26 8 -40 0 -19 -10 -20 -21 -20 -190 l0 -180 -235
0 -235 0 0 170 c0 157 -2 172 -20 190 -24 24 -34 25 -54 4 -13 -13 -16 -45
-16 -190 l0 -174 -235 0 -235 0 0 173 c0 160 -2 175 -20 192 -18 17 -21 17
-45 1 l-25 -16 0 -175 0 -175 -235 0 -235 0 0 180 c0 169 -1 180 -20 190 -14
8 -26 8 -40 0 -19 -10 -20 -21 -20 -190 l0 -180 -235 0 -235 0 0 170 c0 157
-2 172 -20 190 -24 24 -34 25 -54 4 -13 -13 -16 -45 -16 -190 l0 -174 -235 0
-235 0 0 174 c0 145 -3 177 -16 190 -20 21 -30 20 -54 -4 -18 -18 -20 -33 -20
-190 l0 -170 -235 0 -235 0 0 180 c0 169 -1 180 -20 190 -14 8 -26 8 -40 0
-19 -10 -20 -21 -20 -190 l0 -180 -165 0 c-263 0 -259 -5 -263 320 -3 264 1
283 67 327 l34 23 2017 0 2017 0 34 -23z m-4261 -337 l0 -180 -55 0 c-125 0
-205 70 -205 180 0 57 15 93 57 132 39 37 68 47 141 47 l62 1 0 -180z m4567
169 c34 -13 80 -55 99 -91 8 -15 14 -51 14 -80 0 -62 -21 -103 -75 -143 -30
-23 -49 -29 -110 -33 l-75 -5 0 182 0 181 59 0 c33 0 72 -5 88 -11z"/>
<path d="M1907 4286 c-48 -18 -74 -41 -99 -89 -33 -65 -3 -158 62 -195 16 -9
30 -21 30 -27 0 -5 -34 -112 -76 -237 l-76 -228 -249 0 -249 0 -20 39 c-10 22
-31 48 -45 59 -25 20 -26 22 -10 46 20 30 16 65 -7 80 -24 15 -47 0 -75 -49
-15 -27 -32 -42 -60 -51 -93 -32 -135 -132 -93 -219 13 -26 29 -49 36 -52 10
-3 14 -22 14 -58 0 -51 16 -85 41 -85 20 0 49 41 49 70 0 26 4 30 37 36 20 4
53 22 73 40 l37 34 197 -141 c109 -77 195 -146 193 -152 -2 -7 -37 -112 -78
-234 l-74 -223 -45 0 c-145 0 -218 -164 -119 -266 59 -61 140 -69 211 -21 30
21 37 22 63 11 44 -19 73 -17 85 6 15 28 -2 56 -45 71 -29 11 -35 18 -35 41 0
16 -6 43 -13 61 l-14 32 198 143 c109 78 202 142 208 142 6 0 98 -63 206 -140
186 -135 194 -142 185 -166 -51 -134 82 -264 212 -206 64 28 93 73 93 144 0
42 -5 64 -21 85 -36 48 -82 73 -135 73 l-47 0 -77 231 c-74 220 -76 231 -59
244 11 7 98 70 194 139 l175 125 30 -29 c17 -17 51 -36 76 -43 41 -12 44 -15
47 -50 4 -44 30 -64 62 -47 16 9 20 21 20 65 0 44 5 59 25 81 53 57 57 147 8
204 -35 43 -74 60 -131 60 -61 0 -108 -29 -140 -88 l-23 -42 -244 0 -243 0
-79 235 -78 235 39 32 c21 17 44 45 51 61 11 27 17 30 61 31 45 1 49 3 52 27
4 32 -15 48 -65 56 -28 5 -48 17 -75 48 -27 31 -50 46 -82 54 -53 13 -42 13
-89 -3z m97 -97 c53 -41 18 -129 -51 -129 -32 0 -73 42 -73 75 0 33 41 75 73
75 13 0 36 -9 51 -21z m18 -501 l57 -173 -116 -3 c-64 -1 -117 -1 -119 1 -5 5
110 347 116 347 3 0 31 -78 62 -172z m-879 -159 c24 -30 21 -66 -8 -94 -30
-30 -64 -32 -99 -4 -35 27 -35 71 0 106 20 20 31 24 57 19 18 -3 40 -16 50
-27z m1731 10 c53 -41 18 -129 -51 -129 -32 0 -73 42 -73 75 0 33 41 75 73 75
13 0 36 -9 51 -21z m-1156 -121 c-3 -7 -20 -57 -38 -111 -17 -54 -35 -97 -39
-95 -16 7 -282 201 -287 209 -3 5 73 9 181 9 146 0 186 -3 183 -12z m431 -119
c23 -71 41 -136 38 -143 -5 -13 -194 -152 -221 -162 -15 -6 -249 154 -242 165
2 3 22 66 45 139 l42 132 147 0 148 0 43 -131z m418 124 c-29 -28 -293 -210
-299 -205 -5 6 -68 196 -68 207 0 3 84 5 187 5 102 0 183 -3 180 -7z m-227
-705 c0 -4 -66 40 -147 98 -82 58 -148 110 -148 115 0 5 41 38 90 73 l90 65
58 -172 c31 -94 57 -175 57 -179z m-549 280 c49 -35 89 -65 88 -68 0 -8 -299
-220 -299 -212 0 15 112 342 117 342 3 0 45 -28 94 -62z m753 -439 c53 -41 23
-129 -44 -129 -36 0 -80 39 -80 70 0 27 52 80 78 80 11 0 31 -9 46 -21z
m-1071 -21 c40 -48 7 -118 -57 -118 -57 0 -97 70 -63 112 33 42 87 45 120 6z"/>
<path d="M3242 4284 c-26 -18 -28 -37 -6 -58 20 -20 223 -23 242 -4 18 18 14
56 -7 68 -32 17 -203 13 -229 -6z"/>
<path d="M3568 4289 c-21 -12 -24 -49 -6 -67 17 -17 609 -17 626 0 18 18 14
56 -7 68 -26 14 -590 13 -613 -1z"/>
<path d="M1552 4120 c-57 -27 -63 -33 -60 -56 5 -47 28 -51 105 -18 71 32 89
58 63 90 -18 20 -37 18 -108 -16z"/>
<path d="M2356 4097 c-32 -24 -16 -58 44 -94 63 -37 95 -42 110 -14 16 31 2
49 -65 86 -71 40 -66 39 -89 22z"/>
<path d="M1294 3948 c-57 -53 -68 -72 -54 -98 18 -34 52 -24 109 34 54 54 54
55 37 80 -23 36 -39 33 -92 -16z"/>
<path d="M3230 3970 c-8 -14 -8 -26 0 -40 10 -19 21 -20 341 -20 l329 0 12 25
c8 19 8 28 -2 40 -11 13 -58 15 -341 15 -318 0 -329 -1 -339 -20z"/>
<path d="M3981 3971 c-14 -25 -14 -27 5 -45 12 -12 37 -16 103 -16 96 0 115 9
109 52 -3 22 -7 23 -105 26 -93 2 -103 1 -112 -17z"/>
<path d="M2600 3890 c-13 -25 -2 -46 60 -111 38 -40 41 -41 62 -27 35 24 33
42 -14 99 -50 61 -89 75 -108 39z"/>
<path d="M3237 3392 c-22 -24 -21 -35 1 -55 15 -14 42 -17 151 -17 73 0 141 5
152 10 11 6 19 21 19 35 0 14 -8 29 -19 35 -11 5 -80 10 -154 10 -117 0 -136
-2 -150 -18z"/>
<path d="M3622 3398 c-7 -7 -12 -21 -12 -33 0 -43 11 -45 288 -45 162 0 271 4
283 10 21 12 25 50 7 68 -17 17 -549 17 -566 0z"/>
<path d="M3237 3092 c-21 -23 -21 -36 -1 -56 13 -14 54 -16 288 -16 198 0 275
3 284 12 18 18 14 56 -7 68 -12 6 -121 10 -284 10 -243 0 -265 -1 -280 -18z"/>
<path d="M3876 3094 c-9 -8 -16 -22 -16 -29 0 -7 7 -21 16 -29 13 -13 42 -16
158 -16 150 0 166 4 166 47 0 36 -30 43 -174 43 -109 0 -138 -3 -150 -16z"/>
<path d="M1029 3082 l-23 -19 18 -64 c20 -75 30 -89 62 -89 38 0 45 27 25 100
-22 78 -46 100 -82 72z"/>
<path d="M2838 3090 c-20 -12 -50 -111 -46 -148 2 -19 10 -28 26 -30 33 -5 49
12 67 73 20 70 19 92 -4 105 -23 12 -22 12 -43 0z"/>
<path d="M1152 2788 c-21 -21 -13 -50 28 -105 45 -58 80 -70 100 -32 12 22 5
39 -52 112 -30 38 -55 46 -76 25z"/>
<path d="M2671 2745 c-22 -30 -41 -62 -41 -73 0 -23 19 -42 42 -42 17 0 97 91
99 113 4 37 -11 57 -42 57 -9 0 -35 -25 -58 -55z"/>
<path d="M3230 2600 c-8 -14 -8 -26 0 -40 10 -19 19 -20 162 -18 131 3 152 5
162 21 8 12 8 22 0 35 -10 15 -31 17 -162 20 -143 2 -152 1 -162 -18z"/>
<path d="M3614 2606 c-3 -8 -4 -25 -2 -38 l3 -23 284 0 c259 0 285 2 295 18 8
12 8 22 0 35 -10 15 -37 17 -293 20 -238 2 -282 0 -287 -12z"/>
<path d="M2187 2415 c-58 -16 -79 -32 -75 -58 5 -35 31 -43 90 -28 88 22 120
55 86 89 -15 15 -39 14 -101 -3z"/>
<path d="M1803 2379 c-20 -20 -15 -46 9 -63 27 -19 138 -22 156 -4 16 16 15
43 -1 57 -22 17 -150 25 -164 10z"/>
<path d="M3230 2300 c-8 -14 -8 -26 0 -40 10 -19 21 -20 314 -20 260 0 305 2
316 15 10 12 10 21 2 40 l-12 25 -304 0 c-295 0 -306 -1 -316 -20z"/>
<path d="M3950 2305 c-7 -8 -10 -25 -6 -40 l7 -26 122 3 c119 3 122 4 125 26
7 45 -12 52 -128 52 -83 0 -110 -3 -120 -15z"/>
<path d="M1174 1666 c-3 -8 -4 -25 -2 -38 l3 -23 259 0 c236 0 260 2 270 18 8
12 8 22 0 35 -10 15 -36 17 -268 20 -216 2 -257 0 -262 -12z"/>
<path d="M1810 1665 c-10 -12 -10 -21 -2 -40 l12 -25 661 2 c618 3 663 4 673
21 8 12 8 22 0 35 -10 16 -55 17 -671 20 -584 2 -662 0 -673 -13z"/>
<path d="M3300 1660 c-8 -14 -8 -26 0 -40 10 -19 21 -20 375 -20 354 0 365 1
375 20 8 14 8 26 0 40 -10 19 -21 20 -375 20 -354 0 -365 -1 -375 -20z"/>
<path d="M1182 1328 c-15 -15 -15 -51 0 -66 16 -16 200 -16 216 0 7 7 12 21
12 33 0 38 -19 45 -120 45 -61 0 -100 -4 -108 -12z"/>
<path d="M1488 1329 c-24 -13 -23 -56 1 -69 29 -15 673 -14 689 2 15 15 15 51
0 66 -16 16 -664 17 -690 1z"/>
<path d="M2278 1329 c-24 -13 -23 -56 1 -69 30 -15 1313 -14 1329 2 7 7 12 21
12 33 0 12 -5 26 -12 33 -16 16 -1304 17 -1330 1z"/>
<path d="M3697 1322 c-22 -24 -21 -35 1 -55 16 -14 43 -17 174 -17 137 0 157
2 171 18 22 24 21 35 -1 55 -16 14 -43 17 -174 17 -137 0 -157 -2 -171 -18z"/>
</g>
</svg>
