<svg width="68" height="68" viewBox="0 0 68 68" fill="none" xmlns="http://www.w3.org/2000/svg">
<path d="M34.264 0.879883C15.8555 0.879883 0.901367 15.7253 0.901367 33.9999C0.901367 52.2745 15.8555 67.1199 34.264 67.1199C52.6725 67.1199 67.6266 52.2745 67.6266 33.9999C67.6266 15.7253 52.6725 0.879883 34.264 0.879883ZM34.264 3.75988C51.1046 3.75988 64.7255 17.2817 64.7255 33.9999C64.7255 50.718 51.1046 64.2399 34.264 64.2399C17.4234 64.2399 3.80247 50.718 3.80247 33.9999C3.80247 17.2817 17.4234 3.75988 34.264 3.75988ZM47.4464 18.2105C46.4543 18.2105 45.3394 18.4386 44.0354 18.9052C42.0104 19.6295 18.193 29.6686 15.4834 30.8105C13.9342 31.4643 11.0496 32.6804 11.0496 35.5805C11.0496 37.5029 12.1843 38.8779 14.4181 39.6699C15.6192 40.0947 18.4718 40.953 20.1268 41.4052C20.8289 41.5967 21.575 41.6949 22.3423 41.6949C23.8436 41.6949 25.3545 41.3235 26.5381 40.6683C26.528 40.9102 26.5346 41.1548 26.5636 41.3996C26.7421 42.9116 27.6812 44.3337 29.0738 45.2049C29.9847 45.7751 37.4252 50.7243 38.5364 51.5105C40.0971 52.6179 41.8226 53.2036 43.5226 53.2036C46.7718 53.2036 47.862 49.8732 48.3871 48.2733C49.1486 45.9506 52.0002 27.0622 52.3222 23.7314C52.5413 21.449 51.5831 19.5696 49.7583 18.7027C49.0751 18.3758 48.295 18.2105 47.4464 18.2105ZM47.4464 21.0905C47.8453 21.0905 48.2015 21.156 48.5032 21.3014C49.1893 21.6283 49.5383 22.357 49.4325 23.4586C49.0814 27.0918 46.2368 45.5328 45.6304 47.3818C45.1111 48.9629 44.5641 50.3236 43.5226 50.3236C42.4811 50.3236 41.3433 49.9612 40.222 49.1649C39.1008 48.37 31.6549 43.413 30.6206 42.7664C29.7141 42.1991 28.7546 40.7848 30.105 39.4168C31.2176 38.2907 39.6569 30.1593 40.3778 29.4436C40.9146 28.9094 40.6636 28.2652 40.137 28.2652C39.9557 28.2652 39.7386 28.3411 39.5137 28.5239C38.6318 29.2396 26.3364 37.4073 25.2717 38.0639C24.5668 38.4988 23.4752 38.8121 22.3423 38.8121C21.8593 38.8121 21.3702 38.7546 20.9003 38.6264C19.264 38.1786 16.495 37.3446 15.3955 36.9558C14.3381 36.5814 13.9535 36.2227 13.9535 35.5805C13.9535 34.6675 15.2516 34.0373 16.6194 33.4599C18.0642 32.8507 43.0631 22.312 45.0185 21.6136C45.9236 21.2882 46.7516 21.0905 47.4464 21.0905Z" fill="white"/>
</svg>
