<svg width="64" height="67" viewBox="0 0 64 67" fill="none" xmlns="http://www.w3.org/2000/svg">
<path d="M31.51 0C14.1241 0 0 14.8457 0 33.12C0 38.4262 1.25065 43.4123 3.37658 47.8541C3.81404 48.7681 3.94346 49.8055 3.68252 50.7846L0.0508398 64.4119C-0.013667 64.6543 -0.0165817 64.9103 0.0423866 65.1543C0.101355 65.3983 0.220146 65.6218 0.386915 65.8025C0.553684 65.9832 0.762605 66.1148 0.992847 66.1841C1.22309 66.2535 1.46661 66.2582 1.69912 66.1978L15.1691 62.6891C16.1699 62.4284 17.2278 62.5757 18.1535 63.0368C22.212 65.058 26.7244 66.24 31.51 66.24C48.8959 66.24 63.02 51.3943 63.02 33.12C63.02 14.8457 48.8959 0 31.51 0ZM31.51 2.88C47.4151 2.88 60.28 16.4023 60.28 33.12C60.28 49.8377 47.4151 63.36 31.51 63.36C26.4109 63.36 21.6352 61.9627 17.4836 59.5209C17.1799 59.3426 16.8231 59.2923 16.4855 59.3803L9.96484 61.0788C6.99914 61.8513 4.30201 59.1385 5.09162 56.1773L6.85268 49.5731C6.90318 49.3861 6.91712 49.1902 6.89367 48.9974C6.87021 48.8045 6.80985 48.6186 6.71621 48.4509C4.19314 43.954 2.74 38.7218 2.74 33.12C2.74 16.4023 15.6049 2.88 31.51 2.88ZM20.0603 15.84C19.1821 15.84 17.9279 16.1834 16.8976 17.3503C16.2787 18.0512 13.7 20.6921 13.7 25.335C13.7 30.1738 16.8916 34.3493 17.2798 34.8885C17.2801 34.8889 17.2805 34.8891 17.2811 34.8891H17.2822C17.2826 34.8891 17.2829 34.8894 17.2829 34.8897C17.2829 34.8904 17.2817 34.8902 17.2812 34.8897C17.2705 34.8782 17.7892 35.6652 18.4763 36.6047C19.1795 37.5662 20.1628 38.8291 21.3982 40.1962C23.869 42.9306 27.3428 46.0907 31.6545 48.0234C33.6401 48.9122 35.2065 49.4488 36.3933 49.8403C38.5927 50.5662 40.5959 50.4559 42.1007 50.2228C43.2271 50.0485 44.4659 49.48 45.6916 48.6647C46.9174 47.8494 48.1186 46.8356 48.6484 45.2953C49.0279 44.1911 49.2208 43.1706 49.2906 42.3309C49.3254 41.9111 49.3299 41.5405 49.3039 41.1975C49.278 40.8545 49.3057 40.5917 49.0016 40.0669C48.3637 38.9661 47.6414 38.9374 46.8877 38.5453C46.4689 38.3275 45.2767 37.7155 44.0808 37.1166C42.8863 36.5183 41.852 35.9884 41.2151 35.7497C40.8126 35.5975 40.3212 35.3784 39.6123 35.4628C38.9033 35.5472 38.2031 36.0849 37.7954 36.72C37.4352 37.2811 36.0592 38.9961 35.49 39.6858C35.4266 39.7626 35.315 39.7838 35.2267 39.7378C34.6401 39.4327 33.9228 39.1733 32.8613 38.5847C31.8 37.9963 30.4725 37.1274 29.0199 35.7816C29.0192 35.781 29.0188 35.7801 29.0188 35.7792C29.0188 35.7783 29.0185 35.7775 29.0178 35.7769C26.9184 33.8338 25.4296 31.4091 24.9075 30.4976C24.8806 30.4506 24.8899 30.397 24.9276 30.3581L24.9303 30.3553C25.4187 29.8496 25.8515 29.2457 26.2173 28.8028C26.7359 28.1748 26.9648 27.6213 27.2127 27.1041C27.7068 26.0733 27.4317 24.9391 27.1459 24.3423C27.1458 24.3422 27.1458 24.3421 27.1458 24.342C27.1458 24.3414 27.1467 24.3413 27.147 24.3419C27.1554 24.3571 26.9857 23.9627 26.8033 23.5097C26.6149 23.0418 26.3748 22.4353 26.1183 21.7884C25.6056 20.4954 25.0332 19.0453 24.6926 18.1953C24.6923 18.1945 24.6921 18.1936 24.6921 18.1927C24.6921 18.1917 24.6919 18.1908 24.6916 18.1899C24.2904 17.1896 23.7478 16.469 23.0385 16.1212C22.3288 15.7734 21.7019 15.8723 21.6765 15.8709H21.6738C21.1674 15.8464 20.6117 15.84 20.0603 15.84ZM20.0603 18.72C20.5885 18.72 21.1093 18.7268 21.5454 18.7481C21.9941 18.7716 21.9662 18.7736 21.8799 18.7312C21.7922 18.6883 21.9111 18.6743 22.1662 19.3106C22.4996 20.1427 23.0751 21.5989 23.5897 22.8966C23.847 23.5454 24.0877 24.1543 24.28 24.6319C24.4721 25.1089 24.5763 25.3755 24.697 25.6294C24.6973 25.63 24.6975 25.6307 24.6975 25.6313C24.6975 25.6325 24.6979 25.6336 24.6987 25.6344L24.6994 25.6351C24.6999 25.6357 24.7003 25.6363 24.7006 25.637C24.8187 25.8814 24.8082 25.7245 24.767 25.8103C24.4779 26.4134 24.4387 26.5615 24.1462 26.9156C23.701 27.4548 23.2468 28.0561 23.0064 28.305C22.796 28.5222 22.4165 28.8605 22.1795 29.5228C21.9422 30.1861 22.053 31.0962 22.4337 31.7756C22.9407 32.6802 24.6112 35.5382 27.2073 37.9406C28.8423 39.4555 30.3654 40.4581 31.5822 41.1328C32.799 41.8075 33.7901 42.2015 34.0119 42.3169C34.5384 42.5908 35.114 42.8035 35.7832 42.7191C36.4524 42.6346 37.0294 42.2078 37.3967 41.7712L37.3994 41.7684C37.8705 41.2071 39.2366 39.5676 39.959 38.4876C40.0056 38.4179 40.0944 38.3859 40.1731 38.4148C40.2028 38.4257 40.2403 38.4396 40.2881 38.4577C40.2888 38.4579 40.2892 38.4586 40.2892 38.4593C40.2892 38.4602 40.29 38.4609 40.2909 38.4609H40.2915C40.2918 38.4609 40.2919 38.4609 40.2922 38.461C40.4 38.5016 41.7234 39.1243 42.9035 39.7153C44.0846 40.3069 45.2834 40.9217 45.6729 41.1244C45.8669 41.2253 46.0255 41.314 46.1529 41.387C46.3828 41.5187 46.5832 41.8166 46.5613 42.0806C46.5132 42.659 46.3661 43.4595 46.0716 44.3166C45.9273 44.7361 45.1758 45.6014 44.228 46.2319C43.2802 46.8623 42.1266 47.3076 41.6994 47.3737C40.4149 47.5727 38.8897 47.6453 37.2148 47.0925C36.0534 46.7093 34.6052 46.2133 32.7302 45.3741C28.9273 43.6694 25.6952 40.7686 23.3863 38.2134C22.2319 36.9359 21.307 35.7466 20.649 34.8469C19.9922 33.9488 19.7054 33.4815 19.4663 33.1509L19.4636 33.1481C19.0392 32.5581 16.44 28.758 16.44 25.335C16.44 21.7123 18.0408 20.2917 18.9071 19.3106C19.3618 18.7956 19.859 18.72 20.0603 18.72Z" fill="white"/>
</svg>
