<svg width="72" height="72" viewBox="0 0 72 72" fill="none" xmlns="http://www.w3.org/2000/svg">
<path d="M36 0C16.1296 0 0 16.1296 0 36C0 55.8704 16.1296 72 36 72C55.8704 72 72 55.8704 72 36C72 16.1296 55.8704 0 36 0ZM36 2C54.7895 2 70 17.2105 70 36C70 54.7895 54.7895 70 36 70C17.2105 70 2 54.7895 2 36C2 17.2105 17.2105 2 36 2ZM36 5C18.8848 5 5 18.8848 5 36C5 53.1152 18.8848 67 36 67C53.1152 67 67 53.1152 67 36C67 26.9044 63.0791 18.7168 56.8359 13.0469C56.7047 12.9207 56.5152 12.8757 56.3413 12.9296C56.1673 12.9836 56.0365 13.1277 55.9996 13.3061C55.9628 13.4844 56.0257 13.6687 56.1641 13.7871C62.2069 19.2752 66 27.1916 66 36C66 52.5748 52.5748 66 36 66C19.4252 66 6.00001 52.5748 6.00001 36C6.00001 19.4252 19.4252 6.00001 36 6.00001C39.6308 6.00001 43.1081 6.64595 46.3281 7.82618C46.496 7.88761 46.6838 7.85483 46.8209 7.7402C46.958 7.62557 47.0235 7.44649 46.9928 7.27044C46.9621 7.09439 46.8397 6.94812 46.6719 6.88673C43.3439 5.66696 39.7492 5 36 5ZM49.4805 8.14063C49.2492 8.14631 49.052 8.30987 49.0037 8.5361C48.9554 8.76232 49.0686 8.99215 49.2773 9.09181C49.9471 9.42324 50.6045 9.77936 51.2461 10.1582C51.4002 10.2535 51.5937 10.258 51.7521 10.1699C51.9104 10.0819 52.0087 9.9151 52.0091 9.73395C52.0095 9.5528 51.9119 9.3856 51.7539 9.2969C51.0915 8.90576 50.4149 8.53791 49.7227 8.19534C49.6478 8.15704 49.5645 8.13821 49.4805 8.14063ZM53.5078 10.5117C53.4909 10.5115 53.4739 10.5122 53.457 10.5137C53.245 10.5295 53.0661 10.6776 53.0111 10.883C52.9561 11.0884 53.0371 11.3062 53.2129 11.4258C53.5456 11.659 53.8732 11.9 54.1953 12.1465C54.3373 12.2553 54.5266 12.2802 54.6919 12.2116C54.8572 12.1431 54.9733 11.9916 54.9966 11.8141C55.0199 11.6367 54.9467 11.4604 54.8047 11.3515C54.4708 11.096 54.1304 10.8481 53.7871 10.6074C53.7058 10.5481 53.6084 10.5148 53.5078 10.5117ZM52.5703 24.0019C51.9297 23.9839 51.2823 24.2099 50.7832 24.6816C50.7792 24.6848 50.7753 24.6881 50.7715 24.6914L33.4746 42.0645L23.2012 31.668C23.1948 31.662 23.1883 31.6561 23.1816 31.6504C22.1636 30.7244 20.575 30.8023 19.6504 31.8164C19.6504 31.8171 19.6504 31.8177 19.6504 31.8184C18.7254 32.8355 18.8008 34.4255 19.8184 35.3496L31.8008 47.332C31.8059 47.3374 31.8111 47.3426 31.8164 47.3477C32.2925 47.7814 32.8991 48 33.5 48C34.1175 48 34.7381 47.7702 35.2168 47.3164C35.2194 47.3132 35.222 47.3099 35.2246 47.3066L54.2148 28.3164C55.2151 27.3722 55.2609 25.7825 54.3164 24.7832C53.8438 24.2826 53.2109 24.02 52.5703 24.0019ZM52.541 24.9961C52.9235 25.0068 53.3025 25.1644 53.5899 25.4688C54.1634 26.0755 54.1371 27.0161 53.5293 27.5898C53.5253 27.593 53.5214 27.5963 53.5176 27.5996L34.5274 46.5898C34.238 46.8641 33.8705 47 33.5 47C33.1404 47 32.7814 46.8715 32.4941 46.6113C32.4929 46.6103 32.4913 46.6105 32.4902 46.6094L20.5078 34.625C20.5021 34.6197 20.4962 34.6144 20.4902 34.6094C19.8738 34.0495 19.8296 33.1071 20.3906 32.4902C20.9522 31.8757 21.8904 31.829 22.5078 32.3906L33.1172 43.125C33.2111 43.2199 33.3391 43.2734 33.4727 43.2734C33.6062 43.2734 33.7342 43.2199 33.8281 43.125L51.4727 25.4063C51.7751 25.1222 52.16 24.9854 52.541 24.9961Z" fill="#3D3F4E"/>
</svg>
