<svg width="72" height="72" viewBox="0 0 72 72" fill="none" xmlns="http://www.w3.org/2000/svg">
<path d="M36 0C16.1634 0 0 16.1634 0 36C0 55.8366 16.1634 72 36 72C55.8366 72 72 55.8366 72 36C72 16.1634 55.8366 0 36 0ZM36 3.13043C54.1387 3.13043 68.8696 17.8613 68.8696 36C68.8696 54.1387 54.1387 68.8696 36 68.8696C17.8613 68.8696 3.13043 54.1387 3.13043 36C3.13043 17.8613 17.8613 3.13043 36 3.13043ZM36 6.26087C28.9936 6.26087 22.5417 8.7187 17.4558 12.7877L16.0924 13.8791L58.1209 55.9076L59.2123 54.5442C63.2813 49.4583 65.7391 43.0064 65.7391 36C65.7391 19.6162 52.3838 6.26087 36 6.26087ZM36 9.3913C50.6858 9.3913 62.6087 21.3142 62.6087 36C62.6087 41.6299 60.6493 46.7096 57.6532 51.0133L20.9867 14.3468C25.2904 11.3507 30.3701 9.3913 36 9.3913ZM13.8791 16.0924L12.7877 17.4558C8.71868 22.5417 6.26087 28.9936 6.26087 36C6.26087 52.3838 19.6162 65.7391 36 65.7391C43.0064 65.7391 49.4583 63.2813 54.5442 59.2123L55.9076 58.1209L13.8791 16.0924ZM14.3468 20.9867L51.0133 57.6532C46.7096 60.6493 41.6299 62.6087 36 62.6087C21.3142 62.6087 9.3913 50.6858 9.3913 36C9.3913 30.3701 11.3507 25.2904 14.3468 20.9867Z" fill="#3D3F4E"/>
</svg>
